<svg id="visual" viewBox="0 0 900 600" width="900" height="600" xmlns="http://www.w3.org/2000/svg" xmlns:xlink="http://www.w3.org/1999/xlink" version="1.1"><rect x="0" y="0" width="900" height="600" fill="#ffffff"></rect><path  d="M0 401L37.5 414.3C75 427.7 150 454.3 225 464.3C300 474.3 375 467.7 450 448.7C525 429.7 600 398.3 675 393.8C750 389.3 825 411.7 862.5 422.8L900 434L900 601L862.5 601C825 601 750 601 675 601C600 601 525 601 450 601C375 601 300 601 225 601C150 601 75 601 37.5 601L0 601Z" fill="#f5c518"></path><path d="M0 429L37.5 431.5C75 434 150 439 225 440.7C300 442.3 375 440.7 450 444C525 447.3 600 455.7 675 464.7C750 473.7 825 483.3 862.5 488.2L900 493L900 601L862.5 601C825 601 750 601 675 601C600 601 525 601 450 601C375 601 300 601 225 601C150 601 75 601 37.5 601L0 601Z" fill="#e6b30c"></path><path d="M0 505L37.5 504.7C75 504.3 150 503.7 225 502.2C300 500.7 375 498.3 450 503.8C525 509.3 600 522.7 675 526.5C750 530.3 825 524.7 862.5 521.8L900 519L900 601L862.5 601C825 601 750 601 675 601C600 601 525 601 450 601C375 601 300 601 225 601C150 601 75 601 37.5 601L0 601Z" fill="#d6a100"></path></svg>
